<?xml version="1.0" encoding="utf-8"?>
<!-- Generator: Adobe Illustrator 16.0.0, SVG Export Plug-In . SVG Version: 6.00 Build 0)  -->
<!DOCTYPE svg PUBLIC "-//W3C//DTD SVG 1.1//EN" "http://www.w3.org/Graphics/SVG/1.1/DTD/svg11.dtd">
<svg version="1.1" id="Layer_1" xmlns="http://www.w3.org/2000/svg" xmlns:xlink="http://www.w3.org/1999/xlink" x="0px" y="0px"
	 width="595.28px" height="841.89px" viewBox="0 0 595.28 841.89" enable-background="new 0 0 595.28 841.89" xml:space="preserve">
<g>
	<rect x="216.534" y="156.812" fill="#FFCE06" width="23.632" height="23.691"/>
	<g>
		<rect x="252.22" y="237.776" fill="#4870B7" width="13.756" height="29.52"/>
		<rect x="269.022" y="230.023" fill="#4870B7" width="13.756" height="37.273"/>
		<rect x="285.822" y="222.292" fill="#4870B7" width="13.757" height="45.005"/>
		<rect x="302.623" y="214.539" fill="#4870B7" width="13.756" height="52.758"/>
		<rect x="319.423" y="206.785" fill="#4870B7" width="13.759" height="60.511"/>
	</g>
	<g>
		<g>
			<path fill="#FFCE06" d="M240.167,270.973c-0.102-0.708-0.171-1.425-0.171-2.161v-73.117c0-0.547,0.032-1.089,0.091-1.623h-23.552
				v91.311c0,12.193,9.887,22.081,22.081,22.081h1.552V270.973z"/>
			<path fill="#FFCE06" d="M344.876,157.041h-91.311v23.552c0.533-0.058,1.074-0.089,1.624-0.089h73.115
				c8.392,0,15.191,6.8,15.191,15.191v73.117c0,8.391-6.8,15.191-15.191,15.191h-73.115c-0.561,0-1.113-0.035-1.66-0.095v23.556
				h91.346c12.195,0,22.08-9.887,22.08-22.081V179.123C366.956,166.929,357.071,157.041,344.876,157.041z"/>
		</g>
	</g>
	<polygon fill="#FFCE06" points="315.953,322.3 300.198,306.544 331.711,306.544 	"/>
</g>
<g>
	<g>
		<path fill="#4870B7" d="M179.386,475.277h-3.724l-5.517-14.894l-4.137-13.239l-4.275,13.309l-5.517,14.824h-3.724l-12.136-34.062
			h3.724l10.274,30.133l10.412-30.133h2.414l10.343,30.133l10.205-30.133h3.724L179.386,475.277z"/>
		<path fill="#4870B7" d="M195.389,458.314c0-10.825,7.723-17.721,17.308-17.721s17.308,6.896,17.308,17.721
			c0,10.826-7.723,17.446-17.308,17.446S195.389,469.141,195.389,458.314z M226.694,458.314c0-8.826-6.275-14.549-13.998-14.549
			c-7.723,0-13.998,5.723-13.998,14.549s6.274,14.137,13.998,14.137C220.419,472.451,226.694,467.141,226.694,458.314z"/>
		<path fill="#4870B7" d="M240.972,441.215l0.138,6.067c2.137-4.62,6.964-6.413,11.308-6.413c2.551-0.068,5.034,0.621,7.31,2
			l-1.517,2.758c-1.793-1.104-3.792-1.586-5.792-1.586c-6.344,0.069-11.239,5.172-11.239,11.378v19.858H237.8v-34.062H240.972z"/>
		<path fill="#4870B7" d="M268.144,427.01v29.099l16.066-14.894h4.482v0.137l-17.239,15.93l19.238,17.789v0.207h-4.275
			l-18.272-16.687v16.687h-3.31V427.01H268.144z"/>
		<path fill="#4870B7" d="M318.414,447.42c-3.448-3.033-6.827-3.586-10.619-3.586c-5.31-0.068-10.413,1.932-10.274,6.275
			c0.138,4.551,6.068,5.447,10.343,6.206c6.068,1.034,14.412,2.068,14.067,9.999c-0.207,7.516-7.999,9.516-13.998,9.516
			s-11.929-2.275-14.894-6.827l2.482-2.206c2.827,4.068,7.929,5.791,12.481,5.791c4.137,0,10.412-1.103,10.618-6.48
			c0.139-4.896-5.516-5.861-11.102-6.758c-6.619-1.104-13.17-2.345-13.239-9.172c-0.069-6.688,6.62-9.584,13.515-9.516
			c4.965,0,9.309,1.38,12.688,4.552L318.414,447.42z"/>
		<path fill="#4870B7" d="M332.69,427.01v20.549c2.759-4.896,7.517-6.758,12.274-6.827c9.516,0,14.273,6.138,14.273,15.032v19.514
			h-3.31v-19.514c0-7.033-3.311-11.791-10.964-11.791c-7.172,0-12.137,5.516-12.137,12.619v18.686h-3.378V427.01H332.69z"/>
		<path fill="#4870B7" d="M366.481,458.314c0-10.825,7.724-17.721,17.308-17.721c9.585,0,17.308,6.896,17.308,17.721
			c0,10.826-7.723,17.446-17.308,17.446C374.205,475.761,366.481,469.141,366.481,458.314z M397.787,458.314
			c0-8.826-6.274-14.549-13.998-14.549c-7.723,0-13.997,5.723-13.997,14.549s6.274,14.137,13.997,14.137
			C391.513,472.451,397.787,467.141,397.787,458.314z"/>
		<path fill="#4870B7" d="M408.894,489.482v-48.268h3.31v8.067c2.689-5.172,8.137-8.551,14.756-8.551
			c9.24,0.345,16.549,6.551,16.549,17.515c0,11.446-7.723,17.652-17.308,17.652c-5.792,0-11.17-2.827-14.066-8.481v22.065H408.894z
			 M440.13,458.246c0-9.584-6.206-14.273-13.93-14.273c-7.93,0-13.79,5.999-13.79,14.342c0,8.344,5.999,14.344,13.79,14.344
			C433.924,472.658,440.13,467.83,440.13,458.246z"/>
	</g>
	<g>
		<path fill="#4870B7" d="M164.822,493.888v30.397h-4.958l-0.348-2.957c-1.652,2.565-4.305,3.436-6.915,3.436
			c-6.306,0-11.046-4.175-11.046-11.22c0-7.394,4.653-11.22,10.916-11.22c2.261,0,5.784,1.218,7.045,3.436v-11.872H164.822z
			 M146.862,513.544c0,3.739,2.696,6.306,6.088,6.306c3.349,0,6.219-2.436,6.219-6.306c0-3.74-2.87-6.263-6.219-6.263
			C149.558,507.281,146.862,509.674,146.862,513.544z"/>
		<path fill="#4870B7" d="M174.434,515.457c0.348,2.653,2.653,4.566,6.393,4.566c1.957,0,4.523-0.739,5.74-2l3.392,3.348
			c-2.261,2.349-5.958,3.479-9.219,3.479c-7.393,0-11.785-4.566-11.785-11.438c0-6.522,4.436-11.22,11.394-11.22
			c7.176,0,11.655,4.436,10.829,13.264H174.434z M186.088,511.064c-0.348-2.783-2.522-4.174-5.566-4.174
			c-2.87,0-5.219,1.391-6.001,4.174H186.088z"/>
		<path fill="#4870B7" d="M213.009,496.801c0,4.132-6.262,4.132-6.262,0C206.747,492.67,213.009,492.67,213.009,496.801z
			 M207.225,502.759v21.526h5.306v-21.526H207.225z"/>
		<path fill="#4870B7" d="M233.1,524.285v-11.22c0-3.262-1.783-5.74-5.175-5.74c-3.262,0-5.479,2.739-5.479,6.001v10.959h-5.262
			v-21.482h4.74l0.348,2.913c2.174-2.131,4.349-3.218,7.045-3.218c5.044,0,9.089,3.783,9.089,10.523v11.264H233.1z"/>
		<path fill="#4870B7" d="M244.713,524.285v-16.481h-4.001v-4.653h4.001v-1.436c0-5.74,3.871-8.393,8.176-8.393
			c1.87,0,3.827,0.608,5.566,1.739l-1.957,3.957c-1.131-0.739-2.174-1.13-3.262-1.13c-1.826,0-3.218,1.217-3.218,3.826v1.436h6.306
			v4.653h-6.306v16.481H244.713z"/>
		<path fill="#4870B7" d="M280.026,513.587c0,6.176-4.218,11.177-11.176,11.177s-11.133-5.001-11.133-11.177
			c0-6.132,4.262-11.176,11.089-11.176S280.026,507.455,280.026,513.587z M263.023,513.587c0,3.262,1.957,6.306,5.827,6.306
			s5.827-3.044,5.827-6.306c0-3.218-2.261-6.349-5.827-6.349C265.023,507.238,263.023,510.369,263.023,513.587z"/>
		<path fill="#4870B7" d="M288.595,502.846l0.391,2.479c1.653-2.652,3.871-3.044,6.045-3.044c2.218,0,4.349,0.87,5.523,2.044
			l-2.392,4.609c-1.087-0.913-2.087-1.392-3.827-1.392c-2.783,0-5.349,1.479-5.349,5.437v11.307h-5.305v-21.439H288.595z"/>
		<path fill="#4870B7" d="M316.818,524.285v-11.48c0-2.827-1.479-5.393-4.392-5.393c-2.87,0-4.566,2.565-4.566,5.393v11.48h-5.306
			v-21.482h4.914l0.392,2.608c1.131-2.174,3.609-2.957,5.653-2.957c2.565,0,5.132,1.044,6.35,4.001
			c1.913-3.044,4.392-3.914,7.175-3.914c6.089,0,9.089,3.74,9.089,10.177v11.567h-5.305v-11.567c0-2.827-1.175-5.219-4.045-5.219
			s-4.653,2.479-4.653,5.306v11.48H316.818z"/>
		<path fill="#4870B7" d="M358.352,505.803l0.174-2.957h5.088v21.439h-5.001l-0.261-3.131c-1.218,2.522-4.566,3.739-6.958,3.783
			c-6.35,0.043-11.046-3.87-11.046-11.394c0-7.394,4.914-11.264,11.176-11.22C354.395,502.324,357.134,503.672,358.352,505.803z
			 M352.002,507.064c-3.522,0-6.349,2.392-6.349,6.479s2.826,6.522,6.349,6.522C360.352,520.066,360.352,507.064,352.002,507.064z
			 M358.047,493.409h-6.262l-3.219,5.914v0.261h4.697l4.783-5.958V493.409z"/>
		<path fill="#4870B7" d="M374.661,496.801v6.089h5.914v4.565h-5.958v9.264c0,2.044,1.131,3.044,2.783,3.044
			c0.826,0,1.783-0.261,2.565-0.652l1.479,4.522c-1.522,0.608-2.783,0.87-4.393,0.913c-4.653,0.174-7.697-2.479-7.697-7.827v-9.264
			h-4.001v-4.565h4.001v-5.523L374.661,496.801z"/>
		<path fill="#4870B7" d="M390.316,496.801c0,4.132-6.263,4.132-6.263,0C384.054,492.67,390.316,492.67,390.316,496.801z
			 M384.532,502.759v21.526h5.306v-21.526H384.532z"/>
		<path fill="#4870B7" d="M413.018,521.546c-2.479,2.435-5.088,3.392-8.263,3.392c-6.219,0-11.394-3.74-11.394-11.351
			s5.175-11.35,11.394-11.35c3.044,0,5.393,0.869,7.741,3.174l-3.349,3.522c-1.262-1.13-2.827-1.695-4.306-1.695
			c-3.565,0-6.175,2.609-6.175,6.349c0,4.088,2.783,6.263,6.088,6.263c1.696,0,3.392-0.479,4.696-1.783L413.018,521.546z"/>
		<path fill="#4870B7" d="M432.37,502.846h5.088v21.439h-5.001l-0.261-3.131c-1.218,2.522-4.566,3.739-6.958,3.783
			c-6.35,0.043-11.046-3.87-11.046-11.394c0-7.394,4.914-11.264,11.176-11.22c2.87,0,5.61,1.348,6.828,3.479L432.37,502.846z
			 M419.498,513.544c0,4.088,2.826,6.522,6.349,6.522c8.35,0,8.35-13.002,0-13.002C422.324,507.064,419.498,509.456,419.498,513.544
			z"/>
	</g>
</g>
<g>
	<g>
		<path fill="#4870B7" d="M320.396,367.84c0-14.68,21.92-14.68,21.92,0v3.62c0,14.68-21.92,14.68-21.92,0V367.84z M326.162,371.594
			c0,7.105,10.256,7.105,10.256,0v-3.687c0-6.972-10.256-7.105-10.256,0V371.594z"/>
	</g>
</g>
<text transform="matrix(1 0 0 1 239.0352 411.1968)"><tspan x="0" y="0" fill="#4870B7" font-family="'NexaBold'" font-size="81.5396" letter-spacing="-3">1</tspan><tspan x="26.826" y="0" fill="#4870B7" font-family="'NexaBold'" font-size="81.5396">5</tspan></text>
</svg>
